<svg xmlns="http://www.w3.org/2000/svg" viewBox="0 0 48.2 43.47"><style><![CDATA[.N{stroke-miterlimit:10}.O{fill-rule:evenodd}.P{stroke:#fff}.Q{stroke-width:.34}.R{fill:#101038}.S{stroke-width:.32}]]></style><path d="M45.9 19.85v-.08l-.07.06zm-1.3-1.52z" fill="#fff"/><g opacity=".3" fill="#1e0e00"><path d="M6.5 26.3h1v1.46h-1zm0 2.6h1v1.46h-1zm0 2.6h1v1.46h-1zm0-13.06h1v1.46h-1zm0 2.6h1v1.46h-1zm0 2.6h1v1.46h-1zm0-13.06h1v1.46h-1zm0 2.6h1v1.46h-1zm0 2.6h1v1.46h-1zM18.1 4.7h1.58v1H18.1zm-2.83 0h1.58v1h-1.58zm-2.82 0h1.58v1h-1.58zm14.13 0h1.58v1h-1.58zm-2.83 0h1.58v1h-1.58zm-2.8 0h1.58v1h-1.58zm14.13 0h1.58v1h-1.58zm-2.83 0h1.58v1h-1.58zm-2.82 0H31v1h-1.58zM41.6 15.83h1v1.46h-1zm0-2.6h1v1.46h-1zm0-2.6h1v1.46h-1zm0 13.05h1v1.46h-1zm0-2.6h1v1.46h-1zm0-2.6h1v1.46h-1zm0 13.04h1v1.46h-1zm0-2.6h1v1.46h-1zm0-2.6h1v1.46h-1zM29.4 37.87H31v1h-1.6zm2.83 0h1.58v1h-1.58zm2.82 0h1.58v1h-1.58zm-14.13 0h1.58v1h-1.58zm2.83 0h1.58v1h-1.58zm2.8 0h1.58v1h-1.58zm-14.12 0h1.58v1h-1.58zm2.82 0h1.58v1h-1.58zm2.82 0h1.58v1h-1.58zM6.43 7.7h1v1.65h-1z"/><path d="M6.43 4.7v1.65h1V5.7h.66v-1H6.43z" class="O"/><path d="M9.4 4.7h1.65v1H9.4zm28.55-.06h1.65v1h-1.65z"/><path d="M42.58 4.64h-1.65v1h.66v.66h1V4.64z" class="O"/><path d="M41.6 7.62h1v1.65h-1zm.05 26.6h1v1.65h-1z"/><path d="M42.65 38.86V37.2h-1v.66H41v1h1.65z" class="O"/><path d="M38.02 37.87h1.65v1h-1.65zm-28.55.06h1.65v1H9.47z"/><path d="M6.5 38.93h1.65v-1H7.5v-.66h-1v1.65z" class="O"/><path d="M6.5 34.3h1v1.65h-1z"/></g><circle cx="41.91" cy="36.46" r="6.12" fill="#fff" stroke="#142951" class="Q"/><path d="M39.7 35.4v2.4l2.06 1.2 2.07-1.2v-2.4l-2.07-1.2-2.06 1.2z" class="R"/><path d="M41.9 39.06v-2.6l-2.2-1.23m2.24 1.2l2-1.2" fill="none" class="N P S"/><path d="M7.74 3.75H5.36l-1.2 2.07 1.2 2.06h2.38l1.2-2.06-1.2-2.07z" fill="#000d8f"/><path d="M4.07 5.96l2.6.01 1.24-2.2M6.7 6l1.2 2" fill="none" class="N P S"/><path d="M9.86.17H3.42L.2 5.75l3.23 5.58h6.44l3.23-5.58L9.86.17z" fill="#fff" stroke="#00244c" class="N Q"/><path d="M7.87 3.38H5.33L4.05 5.6l1.28 2.2h2.54l1.27-2.2-1.27-2.2z" class="R"/><path d="M3.96 5.74l2.76.01L8.04 3.4M6.77 5.78L8.05 7.9" fill="none" class="N P Q"/><g fill="#fff" stroke="#142951" class="S"><circle cx="41.5" cy="5.03" r="2.82"/><circle cx="7.41" cy="37.84" r="2.82"/></g><path d="M32.1 5v1H34V5m7.88 18.6h.96v1.93h-.96zM6.53 28.86h.96v1.6h-.96z" fill="#000d8f"/><g stroke-width=".89" class="N P R"><rect x="16.34" y="20.16" width="2.85" height="10.13" rx="1.43"/><rect x="20.62" y="14.31" width="2.85" height="15.98" rx="1.43"/><rect x="25.19" y="24.44" width="2.85" height="5.85" rx="1.43"/><rect x="29.47" y="17.16" width="2.85" height="13.13" rx="1.43"/></g></svg>