<svg xmlns="http://www.w3.org/2000/svg" viewBox="0 0 51.87 51.87"><circle cx="26.36" cy="25.65" r="9.53" fill="#cacaca" opacity=".43"/><path d="M45.55 33.27l-1-.37-.3.83-.4.8 1 .47.4-.85a10.05 10.05 0 0 1 .29-.88zM46.5 30l-1.05-.2-.44 1.73 1 .3.5-1.82zm.36-3.3H45.8a15.24 15.24 0 0 1-.14 1.78l1.06.13a14.44 14.44 0 0 0 .15-1.91zM39.9 41.54l-.7-.8a12.37 12.37 0 0 1-1.38 1.13l.64.86a12.74 12.74 0 0 0 1.45-1.19zm2.32-2.44l-.83-.67c-.37.46-.8.9-1.2 1.33l.77.75 1.25-1.4zm1.88-2.76l-.93-.53-1 1.5.88.62c.43-.5.72-1.06 1.05-1.6zm-13.06 9.9l-.26-1.04-.86.22-.88.14.16 1.06.93-.15.9-.23zm3.2-1.06l-.43-1-1.67.62.34 1 1.76-.62zm2.96-1.58l-.57-.9-1.54.9.5.95a17.58 17.58 0 0 0 1.62-.95zM21 46.3l.25-1a16.7 16.7 0 0 1-1.71-.49l-.35 1a14.36 14.36 0 0 0 1.81.49zm3.34.5l.08-1.06a17.27 17.27 0 0 1-1.76-.22l-.18 1.06a14.52 14.52 0 0 0 1.86.22zm3.36 0l-.1-1.07-1.78.08v1.07l1.87-.08zm-15.58-5.13l.7-.8a15.11 15.11 0 0 1-1.29-1.24l-.77.74a15 15 0 0 0 1.35 1.3zm2.7 2l.57-.9a11.17 11.17 0 0 1-1.46-1l-.65.85a12.46 12.46 0 0 0 1.54 1.06zm2.98 1.57l.42-1-1.6-.77-.5.95 1.7.8zM6.4 33.45l1-.38a15.26 15.26 0 0 1-.57-1.69l-1 .3a15.51 15.51 0 0 0 .57 1.78zm1.45 3.03l.92-.54A13 13 0 0 1 8 34.37l-1 .45a13.11 13.11 0 0 0 .85 1.66zm1.9 2.77l.83-.68-1.07-1.43-.88.6 1.12 1.5zM5.13 23.5l1.06.12.28-1.76-1.05-.22-.3 1.86zm-.1 3.37l1.06-.05-.04-.9.05-.9L5.03 25l-.05.94.05.94zm.4 3.33l1.04-.2-.27-1.77-1.06.12.3 1.86zm3.22-16.1l.88.6 1.07-1.43-.83-.68-1.12 1.5zM7 17l1 .46a11.3 11.3 0 0 1 .83-1.58l-.93-.54A13.11 13.11 0 0 0 7 17zm-1.2 3.18l1 .3a14.44 14.44 0 0 1 .57-1.68l-1-.4a14.32 14.32 0 0 0-.57 1.78zM16.1 7.42l.5.95 1.6-.77-.4-1-1.7.8zm-2.8 1.83l.64.86a13.3 13.3 0 0 1 1.47-1l-.57-.9a15.08 15.08 0 0 0-1.54 1.05zm-2.52 2.23l.78.74A16.48 16.48 0 0 1 12.84 11l-.7-.8a16.58 16.58 0 0 0-1.36 1.28zM25.84 5v1.05l1.78.08.1-1.06C27.1 5 26.47 5 25.84 5zm-3.34.28l.17 1.06a13.17 13.17 0 0 1 1.77-.22l-.08-1.06a14.52 14.52 0 0 0-1.86.22zm-3.27.82l.34 1a13 13 0 0 1 1.72-.49l-.25-1a16.2 16.2 0 0 0-1.81.49zM35.6 7.34l-.5.95c.54.25 1 .6 1.54.9l.58-.9a17.58 17.58 0 0 0-1.62-.95zM32.48 6l-.33 1 1.67.63.42-1L32.48 6zm-3.26-.74l-.17 1.06.88.13.87.22.26-1.04-.9-.23-.93-.14zM43.12 14l-.88.6c.36.47.63 1 .95 1.5l.93-.53c-.33-.6-.62-1.13-1-1.6zM41 11.36l-.77.74 1.2 1.34.83-.68-1.25-1.4zm-2.55-2.2l-.64.86.72.53.66.6.72-.8-.7-.63zm8.25 14.17l-1.06.13a14.91 14.91 0 0 1 .14 1.78h1.07a14.44 14.44 0 0 0-.15-1.91zM46 20l-1 .3.43 1.73 1.05-.2c-.12-.6-.3-1.2-.48-1.82zm-1.18-3.1l-.97.46.4.8.3.83 1-.37-.33-.88-.4-.85z" opacity=".3" fill="#1e0e00" fill-rule="evenodd"/><circle cx="40.49" cy="40.49" r="5.24" fill="#fff" stroke="#142951" stroke-width=".29"/><path d="M38.2 39.4v2.6l2.24 1.3 2.24-1.3v-2.6l-2.24-1.3-2.24 1.3z" fill="#000d8f"/><path d="M40.6 43.38v-2.82l-2.38-1.33m1.94.8l2.15-1.3" fill="none" stroke-miterlimit="10" stroke="#fff" stroke-width=".35"/><path d="M23.08 28.84a.58.58 0 0 1-.58.59.58.58 0 0 1-.58-.59v-6.6a.59.59 0 0 1 .58-.59.59.59 0 0 1 .58.59m8.42-.58h-5.94a.59.59 0 1 0 0 1.17h1.64a.78.78 0 0 1 .73.84v5.16a.59.59 0 0 0 .6.59.6.6 0 0 0 .61-.59v-5.15a.78.78 0 0 1 .73-.84h1.63a.59.59 0 1 0 0-1.17zM11.82 10.12l-1.02 1.36.68 1.02 1.36-1.7-1.02-.68zM45.35 26.3L45 28h1.37v-1.7h-1.03M13.86 41.75l1.36 1.02-.34 1.02-1.7-1.36.68-.68z" fill="#000d8f"/><g fill="#fff"><path d="M2.17 21.25h8.48v9.25H2.17zM22.22 1.98h8.1v9.25h-8.1z"/><g stroke="#142951"><circle cx="6.03" cy="25.82" r="2.45" stroke-width=".28"/><circle cx="25.89" cy="5.43" r="2.3" stroke-width=".26"/></g></g></svg>