<svg xmlns="http://www.w3.org/2000/svg" viewBox="0 0 44.21 44.89"><path d="M8.62.23H31a3.63 3.63 0 0 1 3.6 3.63v26.27a3.63 3.63 0 0 1-3.6 3.62H3.86a3.63 3.63 0 0 1-3.63-3.62V8.62A8.38 8.38 0 0 1 8.62.23z" fill="none" stroke="#000d90" stroke-width=".47" stroke-miterlimit="10"/><g opacity=".38"><path d="M9.57 10h30.55" fill="#000d90"/><path d="M15.22 9.66h1.42v.95h-1.42zm-2.54 0h1.42v.95h-1.42zm-2.53 0h1.42v.95h-1.42zm12.7 0h1.42v.95h-1.42zm-2.54 0h1.42v.95h-1.42zm-2.54 0h1.42v.95h-1.42zm12.72 0h1.42v.95H30.5zm-2.54 0h1.42v.95h-1.42zm-2.54 0h1.42v.95h-1.42zm12.72 0h1.42v.95h-1.42zm-2.54 0H37v.95h-1.4zm-2.54 0h1.42v.95h-1.42z" fill="#1e0e00"/></g><g opacity=".38"><path d="M39.53 7.4v29.94" fill="#000d90"/><path d="M38.92 12.95h.94v1.4h-.94zm0-2.5h.94v1.4h-.94zm0-2.5h.94v1.4h-.94zm0 12.46h.94v1.4h-.94zm0-2.5h.94v1.4h-.94zm0-2.48h.94v1.4h-.94zm0 12.46h.94v1.4h-.94zm0-2.5h.94v1.4h-.94zm0-2.5h.94v1.4h-.94zm0 12.46h.94v1.4h-.94zm0-2.5h.94v1.4h-.94zm0-2.47h.94v1.4h-.94z" fill="#1e0e00"/></g><g opacity=".38"><path d="M39.48 40.12H8.93" fill="#000d90"/><path d="M32.4 39.5h1.42v.95H32.4zm2.55 0h1.42v.95h-1.42zm2.55 0h1.42v.95H37.5zm-12.73 0h1.42v.95h-1.42zm2.53 0h1.42v.95H27.3zm2.55 0h1.42v.95h-1.42zm-12.72 0h1.42v.95h-1.42zm2.55 0h1.42v.95h-1.42zm2.52 0h1.42v.95H22.2zm-12.7 0h1.42v.95H9.5zm2.54 0h1.42v.95h-1.42zm2.53 0H16v.95h-1.42z" fill="#1e0e00"/></g><g opacity=".38"><path d="M8.72 40.12V9.57" fill="#000d90"/><path d="M8.38 33.05h.95v1.42h-.95zm0 2.55h.95V37h-.95zm0 2.52h.95v1.42h-.95zm0-12.72h.95v1.42h-.95zm0 2.55h.95v1.42h-.95zm0 2.53h.95v1.42h-.95zm0-12.7h.95v1.42h-.95zm0 2.53h.95v1.42h-.95zm0 2.55h.95v1.42h-.95zm0-12.72h.95v1.42h-.95zm0 2.55h.95v1.42h-.95zm0 2.52h.95v1.42h-.95z" fill="#1e0e00"/></g><g fill="#fff"><g stroke="#142951" stroke-width=".22"><circle cx="8.94" cy="10.36" r="1.89"/><circle cx="39.5" cy="9.42" r="1.89"/><circle cx="40.34" cy="39.59" r="1.89"/><circle cx="8.94" cy="40.06" r="1.89"/></g><path d="M16.14 15.46a16.87 16.87 0 0 1 .37-2 2.75 2.75 0 0 1 2.7-1.95 2.55 2.55 0 0 1 2.5 2 14 14 0 0 1 0 4 2.64 2.64 0 0 1-2.64 2.26 2.74 2.74 0 0 1-2.66-2.26 20.3 20.3 0 0 1-.27-2.05z"/></g><path d="M26.66 23.27l.24-.27a.62.62 0 0 0 0-.87l-2.06-2a.64.64 0 0 0-.89 0l-.1.1.2-1.4a.62.62 0 0 0-.46-.68l-6.78-1.78h-.3l-.14.06h-.05l-.06.05-.05.05a.1.1 0 0 0 0 .05.58.58 0 0 0-.05.14v.25L18 23.6a.63.63 0 0 0 .61.46h.1L20 24l-.1.1a.6.6 0 0 0 0 .86L22 27a.63.63 0 0 0 .45.18.62.62 0 0 0 .44-.18l.24-.23.92.9a.62.62 0 0 0 .44.18.66.66 0 0 0 .45-.18L27.58 25a.6.6 0 0 0 0-.87zM19 22.92L17.88 19l1 1a.62.62 0 0 0 .44.18.66.66 0 0 0 .45-.18.62.62 0 0 0 0-.87l-1-1 4 1-.37 2.5-.9.87zm2.3 1.6l3.14-3.07 1.18 1.15-3.14 3.07zm3.22 1.82l-.52-.47 1.77-1.74.48.47z" stroke-miterlimit="10" fill="#0d1c82" stroke="#fff" stroke-width=".34"/></svg>