<svg xmlns="http://www.w3.org/2000/svg" viewBox="0 0 36.6 52.52"><style><![CDATA[.M{fill-rule:evenodd}.N{stroke-miterlimit:10}]]></style><g opacity=".54"><rect x="4.63" y="4.63" width="24.67" height="43.25" rx="2.72" fill="#fff"/><g fill="#1e0e00"><path d="M19 47.3h1.52v.93H19zm2.72 0h1.52v.93h-1.52z"/><path d="M26.05 48.2l-.25-.92h-1.36v.92h1.6z" class="M"/><path d="M10.8 47.3h1.52v.93H10.8zm2.72 0h1.52v.93h-1.52zm2.72 0h1.52v.93h-1.52z"/><path d="M4.55 46.35l.85-.55a3.06 3.06 0 0 1-.17-1.31l-.92.3a3.8 3.8 0 0 0 .24 1.57zm2.15 1.78l.47-.9A2.26 2.26 0 0 1 6 46.65l-.72.74a3 3 0 0 0 1.41.74zm2.87.07v-.92H8.2l-.24.92h1.6z" class="M"/><path d="M4.3 36.48h.93V38H4.3zm0 2.72h.93v1.52H4.3z"/><path d="M4.3 43.46l.93-.04v-1.5H4.3v1.53z" class="M"/><path d="M4.3 28.28h.93v1.52H4.3zm0 2.72h.93v1.52H4.3zm0 2.73h.93v1.52H4.3zm0-13.65h.93v1.52H4.3zm0 2.72h.93v1.52H4.3zm0 2.73h.93v1.52H4.3zm0-13.63h.93v1.52H4.3zm0 2.72h.93v1.52H4.3zm0 2.72h.93v1.52H4.3z"/><path d="M5.2 5.2l.72.73a2.42 2.42 0 0 1 1.15-.63l-.5-.88a3.07 3.07 0 0 0-1.38.78zm-.9 2.65l.92.26a3.41 3.41 0 0 1 .14-1.31l-.85-.54a4.06 4.06 0 0 0-.21 1.59zm0 2.8h.93v-1.5l-.93-.02v1.53z" class="M"/><path d="M13.42 4.3h1.52v.93h-1.52zm-2.72 0h1.52v.93H10.7z"/><path d="M7.88 4.3l.26.92H9.5V4.3h-1.6z" class="M"/><path d="M21.62 4.3h1.52v.93h-1.52zm-2.72 0h1.52v.93H18.9zm-2.73 0h1.52v.93h-1.52z"/><path d="M29.38 6.16l-.85.56A3 3 0 0 1 28.7 8l.93-.28a3.86 3.86 0 0 0-.25-1.56zM27.24 4.4l-.47.88a2.41 2.41 0 0 1 1.17.59l.7-.74a3 3 0 0 0-1.41-.73zm-2.87-.1v.93h1.36l.25-.92h-1.6z" class="M"/><path d="M28.7 14.52h.93v1.52h-.93zm0-2.72h.93v1.52h-.93z"/><path d="M29.63 9.05l-.93.04v1.5h.93V9.05z" class="M"/><path d="M28.7 22.7h.93v1.52h-.93zm0-2.72h.93v1.52h-.93zm0-2.72h.93v1.52h-.93zm0 13.64h.93v1.52h-.93zm0-2.72h.93v1.52h-.93zm0-2.72h.93v1.52h-.93zm0 13.64h.93v1.52h-.93zm0-2.72h.93v1.52h-.93zm0-2.72h.93v1.52h-.93z"/><path d="M28.73 47.32L28 46.6a2.38 2.38 0 0 1-1.14.63l.48.88a3 3 0 0 0 1.39-.79zm.9-2.65l-.93-.26a3.41 3.41 0 0 1-.14 1.31l.86.54a4.28 4.28 0 0 0 .21-1.59zm0-2.8h-.93v1.5l.93.03v-1.53z" class="M"/></g></g><circle cx="28.82" cy="26.26" r="7.53" fill="#fff" stroke="#110d0d" stroke-width=".5"/><path d="M25.46 24.35v3.83l3.32 1.92 3.32-1.92v-3.83l-3.32-1.92-3.32 1.92z" fill="#172359"/><path d="M29 30.25V26.1l-3.53-2m3.6 1.9l3.2-1.93" fill="none" stroke="#fff" stroke-width=".52" class="N"/><g fill="#fff" stroke="#535353" class="N"><path d="M8.48 10.08h12.8" stroke-width=".64"/><path d="M8.8 26.1h5.12" stroke-width=".41"/><path d="M8.8 43.4h8.33" stroke-width=".52"/><path d="M8.8 37.63h6.4" stroke-width=".45"/></g></svg>