<svg xmlns="http://www.w3.org/2000/svg" viewBox="0 0 44.35 44.35"><style><![CDATA[.F{fill-rule:evenodd}]]></style><path d="M21.3 31.05l-3-11.17h6.24l-3 11.17zm9.63-11.23l-7.85 9.56-.17-.1 2.44-9a.67.67 0 0 1 .51-.4l5.07-.07zm-11.25 9.26l-7.6-9.26h4.95a.8.8 0 0 1 .54.49l2.33 8.66zM18 16.28c-1.4 2.33-3.33 3.33-6.12 2.54l4-4.53zm7-.02l2.1-2 4.05 4.57c-2.8.85-4.6-.5-6.14-2.57zm-3.48-2l2.2 2.06-2.23 2.1-2.2-2.06zm3 2.75l1.68 2h-3.8zm-5.53.25l1.77 1.66h-4.1zm1.3-3.17l-1.6 1.7-1.83-1.7zm3.75 1.42l-1.46-1.4h3.23z" fill="#000d8f" stroke="#fff" stroke-miterlimit="10" stroke-width=".22"/><g opacity=".4" fill="#1e0e00"><path d="M30.87 39.67h1.37v.83h-1.37zm2.45 0h1.37v.83h-1.37z"/><path d="M37.2 40.5l-.2-.83h-1.23v.83h1.44z" class="F"/><path d="M23.5 39.67h1.37v.83H23.5zm2.46 0h1.37v.83h-1.37zm2.44 0h1.37v.83H28.4zm-12.26 0h1.37v.83h-1.37zm2.46 0h1.37v.83H18.6zm2.44 0h1.37v.83h-1.37zm-12.26 0h1.37v.83H8.78zm2.45 0h1.37v.83h-1.37zm2.44 0h1.37v.83h-1.37z"/><path d="M3.87 37.88l.8-.34v-1.2l-.83.07.02 1.46zM5.13 40l.56-.7a2.21 2.21 0 0 1-.78-.88l-.74.6a2.65 2.65 0 0 0 .96 1zm2.5.5l.12-.83H6.57l-.4.8a11.71 11.71 0 0 0 1.45.03z" class="F"/><path d="M3.85 29.03h.83v1.37h-.83zm0 2.45h.83v1.37h-.83zm0 2.45h.83v1.37h-.83zm0-12.26h.83v1.37h-.83zm0 2.45h.83v1.37h-.83zm0 2.44h.83v1.37h-.83zm0-12.26h.83v1.37h-.83zm0 2.45h.83v1.37h-.83zm0 2.45h.83v1.37h-.83z"/><path d="M3.85 8.3h.83V7.1l-.83-.27V8.3z" class="F"/><path d="M3.85 9.4h.83v1.37h-.83zm0 2.43h.83v1.37h-.83zm4.58-7.98H9.8v.83H8.43z"/><path d="M5.84 4l.44.78a3.92 3.92 0 0 1 1.18-.08l-.18-.83A4.93 4.93 0 0 0 5.84 4zM4 5.7l.77.46a2.22 2.22 0 0 1 .66-1L4.8 4.5A2.78 2.78 0 0 0 4 5.7z" class="F"/><path d="M15.8 3.85h1.37v.83H15.8zm-2.46 0h1.37v.83h-1.37zm-2.44 0h1.37v.83H10.9zm12.26 0h1.37v.83h-1.37zm-2.46 0h1.37v.83H20.7zm-2.44 0h1.37v.83h-1.37zm12.26 0h1.37v.83h-1.37zm-2.45 0h1.37v.83h-1.37zm-2.44 0H27v.83h-1.37z"/><path d="M38 3.88l-.36.8a2.07 2.07 0 0 1 1.1.4l.6-.7a2.78 2.78 0 0 0-1.34-.5zm-2.56-.03v.83h1.27l.14-.83h-1.4z" class="F"/><path d="M33 3.85h1.37v.83H33zm6.67 6.42h.83v1.37h-.83z"/><path d="M40.5 7.8l-.83.1v1.3h.83V7.8zm-.38-2.55l-.73.55a2.24 2.24 0 0 1 .28 1.14l.82-.3a2.81 2.81 0 0 0-.37-1.39z" class="F"/><path d="M39.67 17.63h.83V19h-.83zm0-2.45h.83v1.37h-.83zm0-2.44h.83v1.37h-.83zm0 12.26h.83v1.37h-.83zm0-2.45h.83v1.37h-.83zm0-2.45h.83v1.37h-.83zm0 12.26h.83v1.37h-.83zm0-2.46h.83v1.37h-.83zm0-2.43h.83v1.37h-.83z"/><path d="M39.63 39.72l-.63-.65a2.28 2.28 0 0 1-1 .55l.42.8a2.79 2.79 0 0 0 1.21-.69zm.87-2.36l-.83-.24a2.88 2.88 0 0 1-.15 1.17l.75.5a3.45 3.45 0 0 0 .23-1.42zm0-2.53h-.83v1.35l.83.03v-1.38z" class="F"/></g></svg>