<svg xmlns="http://www.w3.org/2000/svg" viewBox="0 0 52.9 44.17"><g fill="#fff" stroke="#0d1c82"><circle cx="872.66" cy="408.38" r="2.62" transform="matrix(.122909 -.992418 .992418 .122909 -504.99 854.4)" stroke-width=".26"/><circle cx="872.07" cy="392.17" r="6.85" transform="matrix(.122909 -.992418 .992418 .122909 -489.42 839.59)" stroke-width=".24"/></g><g opacity=".54"><path d="M20.33 35.03H52.9" fill="#fff"/><path d="M24.35 34.8h1v.63h-1zm-1.8 0h1v.63h-1zm-1.8 0h1v.63h-1zm9.04 0h1v.63h-1zm-1.8 0h1v.63h-1zm-1.8 0h1v.63h-1zm9.03 0h1v.63h-1zm-1.8 0h1v.63h-1zm-1.8 0h1v.63h-1zm9.04 0h1v.63h-1zm-1.8 0h1v.63h-1zm-1.8 0h1v.63h-1zm9.04 0h1v.63h-1zm-1.8 0h1v.63h-1zm-1.8 0h1v.63h-1zm9.04 0h1v.63h-1zm-1.8 0h1v.63h-1zm-1.8 0h1v.63h-1z" fill="#1e0e00"/></g><g opacity=".54"><path d="M20.33 41.04h25" fill="#fff"/><path d="M24.96 40.82h1.16v.63h-1.16zm-2.08 0h1.16v.63h-1.16zm-2.08 0h1.16v.63H20.8zm10.4 0h1.16v.63H31.2zm-2.07 0h1.16v.63h-1.16zm-2.08 0h1.16v.63h-1.16zm10.4 0h1.16v.63h-1.16zm-2.08 0h1.16v.63h-1.16zm-2.08 0h1.16v.63H33.3zm10.4 0h1.16v.63H43.7zm-2.07 0h1.16v.63h-1.16zm-2.07 0h1.16v.63h-1.16z" fill="#1e0e00"/></g><circle cx="872.03" cy="375.86" r="2.62" transform="matrix(.122909 -.992418 .992418 .122909 -473.26 825.25)" fill="#fff" stroke="#0d1c82" stroke-width=".26"/><g opacity=".54"><path d="M20.96 3.13H52.9" fill="#fff"/><path d="M24.9 2.9h1v.63h-1zm-1.77 0h1v.63h-1zm-1.77 0h1v.63h-1zm8.86 0h1v.63h-1zm-1.77 0h1v.63h-1zm-1.75 0h1v.63h-1zm8.85 0h1v.63h-1zm-1.77 0h1v.63h-1zM32 2.9h1v.63h-1zm8.87 0h1v.63h-1zm-1.77 0h1v.63h-1zm-1.77 0h1v.63h-1zm8.87 0h1v.63h-1zm-1.78 0h1v.63h-1zm-1.76 0h1v.63h-1zm8.86 0h1v.63h-1zm-1.77 0h1v.63h-1zm-1.77 0h1v.63h-1z" fill="#1e0e00"/></g><g opacity=".54"><path d="M20.96 8.37h24.38" fill="#fff"/><path d="M25.47 8.15h1.13v.63h-1.13zm-2.03 0h1.13v.63h-1.13zm-2.02 0h1.13v.63h-1.13zm10.15 0h1.13v.63h-1.13zm-2.03 0h1.13v.63h-1.13zm-2.04 0h1.13v.63H27.5zm10.16 0h1.13v.63h-1.13zm-2.03 0h1.13v.63h-1.13zm-2.03 0h1.13v.63H33.6zm10.15 0h1.13v.63h-1.13zm-2.03 0h1.13v.63h-1.13zm-2.02 0h1.13v.63H39.7z" fill="#1e0e00"/></g><path d="M4.6 20.64v3l2.6 1.5 2.6-1.5v-3l-2.6-1.5-2.6 1.5z" fill="#0d1c82"/><path d="M7.4 25.27V22l-2.77-1.56m2.8 1.5l2.5-1.52" stroke-miterlimit="10" fill="none" stroke="#fff" stroke-width=".41"/><path d="M42.9 21.37c-.26-.14-.5-.3-.77-.47l-.57-.36-.66-.36-.57-.37c-.17-.12-.36-.2-.53-.32a1.91 1.91 0 0 1-.3-.21.54.54 0 0 1-.16-.39.62.62 0 0 1 0-.26.52.52 0 0 1 .29-.29.59.59 0 0 1 .5 0l.24.15.95.6.44.28.74.46.75.47.75.46a.9.9 0 0 1 .26.2.47.47 0 0 1 .14.3.42.42 0 0 1 0 .08v.18a.58.58 0 0 1-.25.31 1 1 0 0 0-.16.12l-.45.35-.28.22-.47.37-.32.25-.4.33a.75.75 0 0 0-.17.12.82.82 0 0 0-.17.13l-.43.33-.17.13-.43.34-.54.4a.29.29 0 0 1-.11 0 .39.39 0 0 1-.2 0 .71.71 0 0 1-.27-.08.52.52 0 0 1-.28-.47.64.64 0 0 1 0-.23.68.68 0 0 1 .18-.24l.28-.22.34-.26c.12-.08.2-.18.32-.26l.42-.32.32-.25a3.76 3.76 0 0 1 .41-.32 1.35 1.35 0 0 1 .18-.14.88.88 0 0 0 .17-.13l.4-.3a4.43 4.43 0 0 0 .36-.28.27.27 0 0 0 .23-.05zm-16.25.53l.33.2.43.27.75.47.74.46.53.32.34.22.2.1a.51.51 0 0 1 .22.36.9.9 0 0 1 0 .13v.13a.38.38 0 0 1-.05.13.62.62 0 0 1-.38.29.59.59 0 0 1-.47-.1l-.52-.33-.73-.46-.66-.4-.7-.43-.73-.46-.6-.37a.61.61 0 0 1-.28-.37.56.56 0 0 1 .14-.51 4.67 4.67 0 0 1 .39-.32l.3-.24.44-.34.3-.23.78-.6.4-.32.35-.27.76-.57a2 2 0 0 1 .51-.35.66.66 0 0 1 .54.15.54.54 0 0 1 .17.32.39.39 0 0 1 0 .17.65.65 0 0 1-.16.32 3.15 3.15 0 0 1-.26.21l-.3.23-1.2.93-.35.27-.76.57c-.14.1-.27.23-.42.32a.77.77 0 0 0-.08.1zM36.1 17a.57.57 0 0 1 .41.15.63.63 0 0 1 .18.51 1.21 1.21 0 0 1-.09.28c-.05.1-.08.24-.13.35s-.12.4-.2.58-.05.16-.08.24l-.22.6-.24.68-.18.5a2.78 2.78 0 0 0-.12.35 2.16 2.16 0 0 1-.09.26c0 .08-.06.17-.1.25a2.93 2.93 0 0 0-.12.35 2.31 2.31 0 0 1-.09.26c0 .08-.06.17-.1.25s-.06.2-.1.28-.12.4-.2.58a2.34 2.34 0 0 0-.09.25c0 .1-.05.18-.1.27l-.1.26a2.94 2.94 0 0 0-.11.34c0 .1-.07.18-.1.27a1.14 1.14 0 0 1-.1.25 1.5 1.5 0 0 0-.09.27l-.17.5a.51.51 0 0 1-.46.38.3.3 0 0 1-.11 0 .73.73 0 0 1-.31-.09.58.58 0 0 1-.12-.1.53.53 0 0 1-.11-.25v-.1a.56.56 0 0 1 .06-.28l.22-.62.23-.64.2-.6.18-.5c.07-.16.07-.24.12-.35s.1-.33.18-.5a1.92 1.92 0 0 0 .09-.27c0-.1.08-.2.1-.3s.07-.2.1-.3l.23-.66.1-.3a2.12 2.12 0 0 1 .1-.29 2 2 0 0 0 .09-.27 2.26 2.26 0 0 1 .09-.26c0-.08.06-.17.1-.25a3.33 3.33 0 0 0 .12-.35l.08-.26c0-.08.07-.17.1-.25l.12-.37.18-.5a1.58 1.58 0 0 0 .07-.19.57.57 0 0 1 .41-.42z" fill="#0d1c82"/></svg>